<?xml version="1.0" encoding="utf-8"?>
<!-- Generator: Adobe Illustrator 24.1.0, SVG Export Plug-In . SVG Version: 6.00 Build 0)  -->
<svg version="1.1" id="Layer_1" xmlns="http://www.w3.org/2000/svg" xmlns:xlink="http://www.w3.org/1999/xlink" x="0px" y="0px"
	 viewBox="0 0 513.72 72.21" style="enable-background:new 0 0 513.72 72.21;" xml:space="preserve">
<g>
	<path d="M79.22,27.56c-1.68-1.87-4.12-3.09-6.7-3.09c-3.46,0-4.68,1.83-4.68,3.56c0,1.73,1.17,3,3.84,3.7l4.07,1.17
		c6.23,1.83,9.69,5.43,9.69,10.53c0,5.38-4.49,10.44-12.87,10.44c-4.54,0-9.46-1.92-12.59-5.71l4.54-4.45
		c2.39,2.67,5.34,3.88,7.96,3.88c3.93,0,5.62-2.06,5.62-4.12c0-2.25-1.4-3.42-4.87-4.49l-3.65-1.12c-5.85-1.83-8.94-4.87-8.94-9.83
		c0-4.96,4.31-9.69,11.75-9.69c4.17,0,8.1,1.54,11.24,4.96L79.22,27.56z"/>
	<path d="M98.01,18.85h7.26v20.92c0,3.93,2.9,6.93,6.83,6.93c3.98,0,6.88-3.04,6.88-6.93V18.85h7.3v20.92
		c0,7.68-5.66,14.09-14.18,14.09c-8.57,0-14.09-6.41-14.09-14.09V18.85z"/>
	<path d="M243.08,18.9h23.78v6.46h-16.53v7.3h11.18v5.76h-11.18v8.43h16.53v6.46h-23.78V18.9z"/>
	<path d="M338.75,27.56c-1.68-1.87-4.12-3.09-6.69-3.09c-3.46,0-4.68,1.83-4.68,3.56c0,1.73,1.17,3,3.84,3.7l4.07,1.17
		c6.23,1.83,9.69,5.43,9.69,10.53c0,5.38-4.49,10.44-12.87,10.44c-4.54,0-9.46-1.92-12.59-5.71l4.54-4.45
		c2.39,2.67,5.34,3.88,7.96,3.88c3.93,0,5.62-2.06,5.62-4.12c0-2.25-1.4-3.42-4.87-4.49l-3.65-1.12c-5.85-1.83-8.94-4.87-8.94-9.83
		c0-4.96,4.31-9.69,11.75-9.69c4.17,0,8.1,1.54,11.24,4.96L338.75,27.56z"/>
	<path d="M364.22,26.58h12.41l3.04-7.68h7.87l-13.81,34.41h-6.6L353.31,18.9h7.96L364.22,26.58z M374.7,32.06h-8.66l4.31,11.89
		L374.7,32.06z"/>
	<path d="M398.44,18.9h7.26v27.62h15.96v6.79h-23.22V18.9z"/>
	<path d="M425.66,18.9h28.09v6.79h-10.39v27.62h-7.3V25.69h-10.39V18.9z"/>
	<path d="M176.99,53.31h-7.3V33.09l-9.33,16.06h-3l-9.38-16.15v20.32h-7.26V18.9h6.13l12,20.46l12-20.46h6.13V53.31z"/>
	<path d="M228.16,53.31h-7.3V33.09l-9.33,16.06h-3l-9.38-16.15v20.32h-7.26V18.9h6.13l12,20.46l12-20.46h6.13V53.31z"/>
	<path d="M301.5,37.98c3.68-1.16,6.38-4.42,6.38-8.97c0-5.71-4.3-10.11-9.44-10.11h-18.11v34.41h7.26V38.43l5.92,0l6.88,14.88h8.19
		L301.5,37.98z M287.58,32.67v-7.3l0.03,0h9.4c1.92,0,3.42,1.69,3.42,3.65c0,1.94-1.48,3.65-3.42,3.65H287.58z"/>
	<g>
		<path d="M462.02,41.58c-3.38,0-6.14,2.77-6.14,6.15c0,3.4,2.75,6.14,6.14,6.14c3.4,0,6.15-2.73,6.15-6.14
			C468.17,44.35,465.42,41.58,462.02,41.58z M462.02,53.28c-3,0-5.49-2.51-5.49-5.54c0-3.03,2.49-5.56,5.49-5.56
			c3.01,0,5.5,2.52,5.5,5.56C467.52,50.77,465.05,53.28,462.02,53.28z"/>
		<path d="M462.27,48.13l1.31,2.82h1.32l-1.35-2.93l0.13-0.04c0.71-0.22,1.15-0.85,1.15-1.63c0-1.02-0.77-1.84-1.71-1.84h-3.4v6.45
			h1.16v-2.89l1.36,0L462.27,48.13z M460.88,45.51h1.96c0.43,0,0.79,0.37,0.79,0.83c0,0.46-0.35,0.83-0.79,0.83h-1.96V45.51z"/>
	</g>
</g>
</svg>
